<svg width="64" height="13" viewBox="0 0 64 13" fill="none" xmlns="http://www.w3.org/2000/svg">
<path d="M2.728 0.768V12H-0.00799996V0.768H2.728ZM8.91875 0.768C10.1028 0.768 11.1374 1.00267 12.0228 1.472C12.9081 1.94133 13.5908 2.60267 14.0708 3.456C14.5614 4.29867 14.8068 5.27467 14.8068 6.384C14.8068 7.48267 14.5614 8.45867 14.0708 9.312C13.5908 10.1653 12.9028 10.8267 12.0068 11.296C11.1214 11.7653 10.0921 12 8.91875 12H4.71075V0.768H8.91875ZM8.74275 9.632C9.77742 9.632 10.5828 9.34933 11.1588 8.784C11.7348 8.21867 12.0228 7.41867 12.0228 6.384C12.0228 5.34933 11.7348 4.544 11.1588 3.968C10.5828 3.392 9.77742 3.104 8.74275 3.104H7.44675V9.632H8.74275ZM23.2158 12L20.9278 8.56L18.9118 12H15.8078L19.4078 6.288L15.7278 0.768H18.9118L21.1678 4.16L23.1518 0.768H26.2558L22.6878 6.432L26.3998 12H23.2158ZM27.3092 6.368C27.3092 5.25867 27.5493 4.272 28.0293 3.408C28.5093 2.53333 29.1759 1.856 30.0293 1.376C30.8933 0.885333 31.8693 0.639999 32.9573 0.639999C34.2906 0.639999 35.4319 0.991999 36.3813 1.696C37.3306 2.4 37.9653 3.36 38.2853 4.576H35.2773C35.0533 4.10667 34.7333 3.74933 34.3173 3.504C33.9119 3.25867 33.4479 3.136 32.9253 3.136C32.0826 3.136 31.3999 3.42933 30.8773 4.016C30.3546 4.60267 30.0933 5.38667 30.0933 6.368C30.0933 7.34933 30.3546 8.13333 30.8773 8.72C31.3999 9.30667 32.0826 9.6 32.9253 9.6C33.4479 9.6 33.9119 9.47733 34.3173 9.232C34.7333 8.98667 35.0533 8.62933 35.2773 8.16H38.2853C37.9653 9.376 37.3306 10.336 36.3813 11.04C35.4319 11.7333 34.2906 12.08 32.9573 12.08C31.8693 12.08 30.8933 11.84 30.0293 11.36C29.1759 10.8693 28.5093 10.192 28.0293 9.328C27.5493 8.464 27.3092 7.47733 27.3092 6.368ZM39.4168 7.52C39.4168 6.60267 39.5874 5.79733 39.9288 5.104C40.2808 4.41067 40.7554 3.87733 41.3528 3.504C41.9501 3.13067 42.6168 2.944 43.3528 2.944C43.9821 2.944 44.5314 3.072 45.0008 3.328C45.4808 3.584 45.8488 3.92 46.1048 4.336V3.072H48.8408V12H46.1048V10.736C45.8381 11.152 45.4648 11.488 44.9848 11.744C44.5154 12 43.9661 12.128 43.3368 12.128C42.6114 12.128 41.9501 11.9413 41.3528 11.568C40.7554 11.184 40.2808 10.6453 39.9288 9.952C39.5874 9.248 39.4168 8.43733 39.4168 7.52ZM46.1048 7.536C46.1048 6.85333 45.9128 6.31467 45.5288 5.92C45.1554 5.52533 44.6968 5.328 44.1528 5.328C43.6088 5.328 43.1448 5.52533 42.7608 5.92C42.3874 6.304 42.2008 6.83733 42.2008 7.52C42.2008 8.20267 42.3874 8.74667 42.7608 9.152C43.1448 9.54667 43.6088 9.744 44.1528 9.744C44.6968 9.744 45.1554 9.54667 45.5288 9.152C45.9128 8.75733 46.1048 8.21867 46.1048 7.536ZM53.5561 0.16V12H50.8201V0.16H53.5561ZM54.9949 7.536C54.9949 6.608 55.1815 5.79733 55.5549 5.104C55.9389 4.41067 56.4669 3.87733 57.1389 3.504C57.8215 3.13067 58.6002 2.944 59.4749 2.944C60.5949 2.944 61.5282 3.23733 62.2749 3.824C63.0322 4.41067 63.5282 5.23733 63.7629 6.304H60.8509C60.6055 5.62133 60.1309 5.28 59.4269 5.28C58.9255 5.28 58.5255 5.47733 58.2269 5.872C57.9282 6.256 57.7789 6.81067 57.7789 7.536C57.7789 8.26133 57.9282 8.82133 58.2269 9.216C58.5255 9.6 58.9255 9.792 59.4269 9.792C60.1309 9.792 60.6055 9.45067 60.8509 8.768H63.7629C63.5282 9.81333 63.0322 10.6347 62.2749 11.232C61.5175 11.8293 60.5842 12.128 59.4749 12.128C58.6002 12.128 57.8215 11.9413 57.1389 11.568C56.4669 11.1947 55.9389 10.6613 55.5549 9.968C55.1815 9.27467 54.9949 8.464 54.9949 7.536Z" fill="black"/>
</svg>
